# xmcd
#
# Track frame offsets:
#	150
#	8977
#	19036
#	33380
#	46667
#	59462
#	75585
#	93050
#	102042
#	116522
#	129635
#	144294
#	157560
#	169432
#	184102
#	193007
#
# Disc length: 2814
#
# Revision: 1
# Processed by: cddbd v1.5.1PL0 Copyright (c) Steve Scherf et al.
# Submitted via: ExactAudioCopy v0.95a3
# Normalized: r0:TRMNUM
#
DISCID=bd0afc10
DTITLE=Dick Feller - CentaurOf Attention
DYEAR=2001
DGENRE=Country
TTITLE0=Alimony
TTITLE1=I Just Don't Look Good Naked Anymore
TTITLE2=The New Credit Card Song
TTITLE3=Lord, Mr Ford
TTITLE4=Makin' The Best Of A Bad Situation
TTITLE5=Uncle Hiram And The Homemade Beer
TTITLE6=Instant Glue
TTITLE7=Cold Showers
TTITLE8=The Coin Machine
TTITLE9=Big Money
TTITLE10=The Night Miss Nancy Ann's Hotel For Single Girls Burned Down
TTITLE11=Buddy, Can You Spare A Condo
TTITLE12=Angel WIngs
TTITLE13=Good Help Is Hard To Find
TTITLE14=Who Do You Do What To In Your Dreams
TTITLE15=Biff, The Friendly Purple Bear
EXTD=
EXTT0=
EXTT1=
EXTT2=
EXTT3=
EXTT4=
EXTT5=
EXTT6=
EXTT7=
EXTT8=
EXTT9=
EXTT10=
EXTT11=
EXTT12=
EXTT13=
EXTT14=
EXTT15=
PLAYORDER=
